<svg width="66" height="66" viewBox="0 0 66 66" fill="none" xmlns="http://www.w3.org/2000/svg">
<path d="M33 39.1875C47.8081 39.1875 59.8125 33.647 59.8125 26.8125C59.8125 19.978 47.8081 14.4375 33 14.4375C18.1919 14.4375 6.1875 19.978 6.1875 26.8125C6.1875 33.647 18.1919 39.1875 33 39.1875Z" fill="#E20024"/>
<path d="M33 39.1875C47.8081 39.1875 59.8125 33.647 59.8125 26.8125C59.8125 19.978 47.8081 14.4375 33 14.4375C18.1919 14.4375 6.1875 19.978 6.1875 26.8125C6.1875 33.647 18.1919 39.1875 33 39.1875Z" stroke="black" stroke-linecap="round" stroke-linejoin="round"/>
<path d="M33 39.1875V51.5625" stroke="black" stroke-linecap="round" stroke-linejoin="round"/>
<path d="M6.1875 26.8125V39.1875C6.1875 45.375 16.5 51.5625 33 51.5625C49.5 51.5625 59.8125 45.375 59.8125 39.1875V26.8125" stroke="black" stroke-linecap="round" stroke-linejoin="round"/>
<path d="M49.5 36.6367V49.0119" stroke="black" stroke-linecap="round" stroke-linejoin="round"/>
<path d="M16.5 36.6367V49.0118" stroke="black" stroke-linecap="round" stroke-linejoin="round"/>
</svg>
