<svg width="66" height="66" viewBox="0 0 66 66" fill="none" xmlns="http://www.w3.org/2000/svg">
<path d="M51.5625 39.4099L42.0757 48.8966C41.8239 49.1485 41.5111 49.3308 41.1679 49.4259C40.8246 49.521 40.4626 49.5255 40.1171 49.4391L25.1751 45.7036C24.8948 45.6336 24.6324 45.5054 24.4048 45.3275L10.3125 34.3078L18.7106 18.5085L31.9415 14.6513C32.4142 14.5135 32.9205 14.5493 33.369 14.7523L42.2812 18.7849H36.9481C36.6772 18.7849 36.409 18.8382 36.1588 18.9419C35.9085 19.0455 35.6812 19.1974 35.4897 19.389L25.4003 29.4783C25.1914 29.6873 25.0297 29.9387 24.9264 30.2155C24.8231 30.4923 24.7805 30.7882 24.8014 31.0829C24.8224 31.3777 24.9064 31.6645 25.0478 31.9239C25.1893 32.1834 25.3848 32.4094 25.6212 32.5867L27.0188 33.6349C28.4468 34.7059 30.1837 35.2849 31.9688 35.2849C33.7538 35.2849 35.4907 34.7059 36.9187 33.6349L40.2188 31.1599L51.5625 39.4099Z" fill="#E20024"/>
<path d="M62.06 31.3976L55.6875 34.5839L47.4375 18.7846L53.8749 15.5659C54.3585 15.3241 54.9178 15.2819 55.4323 15.4483C55.9467 15.6148 56.3752 15.9767 56.6255 16.456L62.9659 28.5982C63.0927 28.841 63.1698 29.1066 63.1928 29.3795C63.2159 29.6525 63.1843 29.9272 63.1 30.1878C63.0156 30.4484 62.8802 30.6896 62.7017 30.8973C62.5231 31.105 62.305 31.2751 62.06 31.3976V31.3976Z" stroke="black" stroke-linecap="round" stroke-linejoin="round"/>
<path d="M10.3124 34.3075L3.93993 31.1212C3.69494 30.9987 3.47681 30.8287 3.29826 30.621C3.11971 30.4133 2.98432 30.1721 2.89999 29.9115C2.81566 29.6509 2.78408 29.3761 2.8071 29.1032C2.83012 28.8302 2.90727 28.5646 3.03405 28.3218L9.37442 16.1796C9.6247 15.7003 10.0532 15.3384 10.5677 15.172C11.0821 15.0055 11.6414 15.0477 12.125 15.2895L18.5624 18.5082L10.3124 34.3075Z" stroke="black" stroke-linecap="round" stroke-linejoin="round"/>
<path d="M55.6875 34.5839L51.5625 39.4097L42.0757 48.8964C41.8239 49.1483 41.5111 49.3306 41.1679 49.4257C40.8246 49.5208 40.4626 49.5253 40.1171 49.4389L25.1751 45.7034C24.8948 45.6334 24.6324 45.5052 24.4048 45.3273L10.3125 34.3076" stroke="black" stroke-linecap="round" stroke-linejoin="round"/>
<path d="M51.5622 39.4097L40.2184 31.1597L36.9184 33.6347C35.4904 34.7057 33.7535 35.2847 31.9684 35.2847C30.1834 35.2847 28.4465 34.7057 27.0184 33.6347L25.6209 32.5865C25.3845 32.4092 25.189 32.1832 25.0475 31.9237C24.9061 31.6643 24.822 31.3775 24.8011 31.0827C24.7801 30.788 24.8228 30.4922 24.9261 30.2153C25.0294 29.9385 25.191 29.6871 25.4 29.4781L35.4893 19.3888C35.6809 19.1972 35.9082 19.0453 36.1585 18.9417C36.4087 18.838 36.6769 18.7847 36.9477 18.7847H47.4372" stroke="black" stroke-linecap="round" stroke-linejoin="round"/>
<path d="M18.7109 18.5081L31.9419 14.6508C32.4145 14.513 32.9208 14.5488 33.3694 14.7518L42.2816 18.7844" stroke="black" stroke-linecap="round" stroke-linejoin="round"/>
<path d="M28.875 54.8784L21.1047 52.9358C20.7894 52.857 20.4971 52.7047 20.2518 52.4915L14.4375 47.4375" stroke="black" stroke-linecap="round" stroke-linejoin="round"/>
</svg>
