<svg width="93" height="93" viewBox="0 0 93 93" fill="none" xmlns="http://www.w3.org/2000/svg">
<path opacity="0.2" d="M33.8465 44.6229C31.6061 39.0348 31.3639 32.8445 33.1608 27.0984C34.9576 21.3524 38.6833 16.4029 43.7082 13.0867C48.733 9.77053 54.7487 8.29099 60.7385 8.89818C66.7283 9.50538 72.3247 12.1621 76.5818 16.4192C80.8389 20.6763 83.4956 26.2727 84.1028 32.2625C84.7099 38.2523 83.2304 44.268 79.9142 49.2928C76.598 54.3176 71.6485 58.0434 65.9025 59.8402C60.1564 61.6371 53.9661 61.3948 48.378 59.1545L48.3783 59.1539L43.5947 63.9375H34.8759V72.6562H26.1572V81.375H11.6259V66.8438L33.8471 44.6226L33.8465 44.6229Z" fill="#E20024"/>
<path d="M33.8465 44.6229C31.6061 39.0348 31.3639 32.8445 33.1608 27.0984C34.9576 21.3524 38.6833 16.4029 43.7082 13.0867C48.733 9.77053 54.7487 8.29099 60.7385 8.89818C66.7283 9.50538 72.3247 12.1621 76.5818 16.4192C80.8389 20.6763 83.4956 26.2727 84.1028 32.2625C84.7099 38.2523 83.2304 44.268 79.9142 49.2928C76.598 54.3176 71.6485 58.0434 65.9025 59.8402C60.1564 61.6371 53.9661 61.3948 48.378 59.1545L48.3783 59.1539L43.5947 63.9375H34.8759V72.6563H26.1572V81.375H11.6259V66.8438L33.8471 44.6226L33.8465 44.6229Z" stroke="#E20024" stroke-width="2" stroke-linecap="round" stroke-linejoin="round"/>
<path opacity="0.5" d="M65.3906 29.0625C66.1932 29.0625 66.8438 28.4119 66.8438 27.6094C66.8438 26.8068 66.1932 26.1562 65.3906 26.1562C64.5881 26.1562 63.9375 26.8068 63.9375 27.6094C63.9375 28.4119 64.5881 29.0625 65.3906 29.0625Z" stroke="#E20024" stroke-width="2" stroke-linecap="round" stroke-linejoin="round"/>
<path d="M65.3906 31.9688C67.7982 31.9688 69.75 30.017 69.75 27.6094C69.75 25.2018 67.7982 23.25 65.3906 23.25C62.983 23.25 61.0312 25.2018 61.0312 27.6094C61.0312 30.017 62.983 31.9688 65.3906 31.9688Z" fill="#E20024"/>
</svg>
