<svg width="93" height="93" viewBox="0 0 93 93" fill="none" xmlns="http://www.w3.org/2000/svg">
<path opacity="0.2" d="M75.5625 31.9688H17.4375C15.8324 31.9688 14.5312 33.2699 14.5312 34.875V75.5625C14.5312 77.1676 15.8324 78.4688 17.4375 78.4688H75.5625C77.1676 78.4688 78.4688 77.1676 78.4688 75.5625V34.875C78.4688 33.2699 77.1676 31.9688 75.5625 31.9688Z" fill="#E20024"/>
<path d="M75.5625 31.9688H17.4375C15.8324 31.9688 14.5312 33.2699 14.5312 34.875V75.5625C14.5312 77.1676 15.8324 78.4688 17.4375 78.4688H75.5625C77.1676 78.4688 78.4688 77.1676 78.4688 75.5625V34.875C78.4688 33.2699 77.1676 31.9688 75.5625 31.9688Z" stroke="#E20024" stroke-width="2" stroke-linecap="round" stroke-linejoin="round"/>
<path d="M33.4219 31.9688V18.8906C33.4219 15.4221 34.7997 12.0956 37.2524 9.64299C39.705 7.19037 43.0315 5.8125 46.5 5.8125C49.9685 5.8125 53.295 7.19037 55.7476 9.64299C58.2003 12.0956 59.5781 15.4221 59.5781 18.8906" stroke="#E20024" stroke-width="2" stroke-linecap="round" stroke-linejoin="round"/>
<path d="M46.5 59.5781C48.9076 59.5781 50.8594 57.6264 50.8594 55.2188C50.8594 52.8111 48.9076 50.8594 46.5 50.8594C44.0924 50.8594 42.1406 52.8111 42.1406 55.2188C42.1406 57.6264 44.0924 59.5781 46.5 59.5781Z" fill="#E20024"/>
</svg>
