<svg width="153" height="44" viewBox="0 0 153 44" fill="none" xmlns="http://www.w3.org/2000/svg">
<g clip-path="url(#clip0_400_3334)">
<path d="M58.2592 31.012H54.0874L49.5733 24.1268L45.0266 31.012H40.9526L47.3652 21.6824L41.4496 12.9639H45.597L49.6059 19.0424L53.68 12.9639H57.7541L51.7407 21.4868L58.2592 31.012Z" fill="black"/>
<path d="M60.2637 10.1528V6.34766H64.1096V10.1528H60.2637ZM60.3288 31.0121V12.9639H64.0688V31.0121H60.3288Z" fill="black"/>
<path d="M88.5948 12.5644C89.4582 12.5333 90.3181 12.6907 91.1145 13.0256C91.911 13.3605 92.6249 13.8648 93.2067 14.5036C94.424 15.8942 95.0574 17.7011 94.9748 19.5473V31.0118H91.2674V20.4192C91.2834 19.5855 91.1424 18.7563 90.8518 17.9748C90.6168 17.3414 90.1966 16.7934 89.6459 16.4022C89.0875 16.0372 88.4305 15.8523 87.7637 15.8725C87.1753 15.8649 86.5933 15.9951 86.0641 16.2526C85.535 16.51 85.0734 16.8878 84.7163 17.3555C83.8867 18.4429 83.463 19.7859 83.5185 21.1525V31.0118H79.8763V20.4192C79.9535 19.2183 79.6359 18.0251 78.9718 17.0214C78.6653 16.6282 78.2679 16.3152 77.8138 16.1094C77.3596 15.9036 76.8623 15.8111 76.3645 15.8399C75.7802 15.8361 75.2029 15.9681 74.6783 16.2255C74.1537 16.4828 73.6961 16.8585 73.3415 17.3229C72.4968 18.4037 72.0636 19.7494 72.1193 21.12V30.9792H68.4119V12.9637H71.0519L71.6874 15.3022C72.3569 14.4473 73.2124 13.7562 74.1889 13.2814C75.1573 12.8057 76.2225 12.5603 77.3015 12.5644C78.4232 12.5389 79.5306 12.8207 80.5037 13.3792C81.4361 13.9323 82.1997 14.7296 82.7119 15.6851C83.3502 14.7135 84.225 13.9201 85.2541 13.3792C86.2829 12.835 87.4309 12.555 88.5948 12.5644Z" fill="black"/>
<path d="M114.498 28.7547C112.615 30.484 110.152 31.4435 107.596 31.4435C105.04 31.4435 102.577 30.484 100.695 28.7547C99.7915 27.8786 99.0802 26.8243 98.606 25.6586C98.1319 24.493 97.9054 23.2415 97.9407 21.9836C97.9173 20.2869 98.3507 18.6152 99.1955 17.1436C100.011 15.7081 101.214 14.5307 102.667 13.7458C104.187 12.9465 105.879 12.5288 107.596 12.5288C109.314 12.5288 111.006 12.9465 112.526 13.7458C113.979 14.533 115.184 15.7096 116.005 17.1436C116.843 18.6175 117.274 20.2882 117.252 21.9836C117.289 23.2417 117.064 24.4938 116.589 25.6598C116.115 26.8257 115.403 27.8799 114.498 28.7547ZM107.596 27.8991C108.657 27.9174 109.705 27.659 110.636 27.1495C111.516 26.6576 112.241 25.9295 112.73 25.0473C113.237 24.1069 113.495 23.0521 113.479 21.9836C113.508 21.2027 113.378 20.4242 113.098 19.6947C112.818 18.9652 112.393 18.2998 111.85 17.7384C110.703 16.6643 109.192 16.0666 107.621 16.0666C106.05 16.0666 104.538 16.6643 103.392 17.7384C102.328 18.8962 101.738 20.4112 101.738 21.9836C101.738 23.556 102.328 25.071 103.392 26.2288C103.942 26.7792 104.598 27.2114 105.321 27.4986C106.044 27.7859 106.819 27.9222 107.596 27.8991Z" fill="black"/>
<path d="M123.721 27.5653H132.407V31.012H117.936V30.5394L126.655 16.3698H118.604V12.9639H132.375V13.5342L123.721 27.5653Z" fill="black"/>
<path d="M150.154 28.7547C148.272 30.484 145.809 31.4435 143.253 31.4435C140.696 31.4435 138.234 30.484 136.351 28.7547C135.448 27.8786 134.736 26.8243 134.262 25.6586C133.788 24.493 133.562 23.2415 133.597 21.9836C133.574 20.2869 134.007 18.6152 134.852 17.1436C135.668 15.7081 136.87 14.5307 138.323 13.7458C139.843 12.9465 141.535 12.5288 143.253 12.5288C144.97 12.5288 146.662 12.9465 148.182 13.7458C149.635 14.533 150.84 15.7096 151.661 17.1436C152.494 18.6247 152.916 20.3012 152.884 21.9999C152.922 23.2535 152.699 24.5014 152.229 25.6643C151.759 26.8272 151.053 27.8796 150.154 28.7547ZM143.253 27.8991C144.314 27.9174 145.361 27.659 146.292 27.1495C147.172 26.6576 147.897 25.9295 148.386 25.0473C148.894 24.1069 149.152 23.0521 149.136 21.9836C149.164 21.2027 149.034 20.4242 148.754 19.6947C148.474 18.9652 148.049 18.2998 147.506 17.7384C146.36 16.6643 144.848 16.0666 143.277 16.0666C141.706 16.0666 140.194 16.6643 139.048 17.7384C137.984 18.8962 137.394 20.4112 137.394 21.9836C137.394 23.556 137.984 25.071 139.048 26.2288C139.598 26.7792 140.255 27.2114 140.978 27.4986C141.701 27.7859 142.475 27.9222 143.253 27.8991Z" fill="black"/>
<path d="M20.3785 27.2393C18.7109 25.4847 17.0296 23.741 15.3348 22.0082C17.0296 20.2753 18.7109 18.5262 20.3785 16.7607C24.2489 12.8007 31.0281 5.77703 36.3 0.301477L35.9985 0L32.837 3.0474C23.8741 11.1955 14.0963 16.7689 5.82595 12.3608C5.16954 11.9984 4.55939 11.5579 4.00888 11.0489L2.03704 9.25628C1.43407 8.74295 0.839249 8.22149 0.244435 7.70001L0 7.9526C4.1963 12.8415 8.66148 17.4778 13.2407 22.0082C10.0874 25.1045 6.98296 28.2578 4.01703 31.5415L1.57259 34.263C1.05925 34.8659 0.537802 35.4607 0.0244683 36.0556L0.268903 36.3C1.59977 35.1592 2.91163 33.9995 4.20447 32.8207C4.67228 32.3859 5.19229 32.011 5.75259 31.7044C14.0719 27.1904 23.8985 32.7963 32.8615 40.9526L36.023 44L36.3245 43.7067C31.0282 38.2311 24.2408 31.1993 20.3785 27.2393Z" fill="#E20024"/>
</g>
<defs>
<clipPath id="clip0_400_3334">
<rect width="152.916" height="44" fill="white"/>
</clipPath>
</defs>
</svg>
