<svg width="66" height="66" viewBox="0 0 66 66" fill="none" xmlns="http://www.w3.org/2000/svg">
<path opacity="0.2" d="M33 57.75C46.669 57.75 57.75 46.669 57.75 33C57.75 19.331 46.669 8.25 33 8.25C19.331 8.25 8.25 19.331 8.25 33C8.25 46.669 19.331 57.75 33 57.75Z" fill="#BEBEBE"/>
<path d="M33 57.75C46.669 57.75 57.75 46.669 57.75 33C57.75 19.331 46.669 8.25 33 8.25C19.331 8.25 8.25 19.331 8.25 33C8.25 46.669 19.331 57.75 33 57.75Z" stroke="#BEBEBE" stroke-width="2" stroke-miterlimit="10"/>
<path d="M47.4375 24.75L39.1875 33" stroke="#BEBEBE" stroke-width="2" stroke-linecap="round" stroke-linejoin="round"/>
<path d="M47.4375 33L39.1875 24.75" stroke="#BEBEBE" stroke-width="2" stroke-linecap="round" stroke-linejoin="round"/>
<path d="M26.8125 24.75L18.5625 33" stroke="#BEBEBE" stroke-width="2" stroke-linecap="round" stroke-linejoin="round"/>
<path d="M26.8125 33L18.5625 24.75" stroke="#BEBEBE" stroke-width="2" stroke-linecap="round" stroke-linejoin="round"/>
<path d="M33 49.5C34.7086 49.5 36.0938 48.1149 36.0938 46.4062C36.0938 44.6976 34.7086 43.3125 33 43.3125C31.2914 43.3125 29.9062 44.6976 29.9062 46.4062C29.9062 48.1149 31.2914 49.5 33 49.5Z" fill="#BEBEBE"/>
</svg>
