<svg width="66" height="66" viewBox="0 0 66 66" fill="none" xmlns="http://www.w3.org/2000/svg">
<path d="M52.9305 18.3253C52.1973 18.5856 51.4054 18.6328 50.6466 18.4614C49.8878 18.29 49.193 17.9071 48.6429 17.357C48.0928 16.8069 47.7099 16.1121 47.5385 15.3533C47.3671 14.5945 47.4143 13.8026 47.6746 13.0694C42.5574 9.3019 36.1872 7.64687 29.8833 8.44714C23.5794 9.24741 17.8248 12.4417 13.8114 17.3683C9.79792 22.295 7.83315 28.5766 8.324 34.9121C8.81484 41.2476 11.7237 47.1517 16.4481 51.4014V51.4011C18.0009 48.346 20.3693 45.7804 23.2908 43.9887C26.2123 42.197 29.5728 41.2491 32.9999 41.25C30.9603 41.25 28.9665 40.6452 27.2706 39.512C25.5747 38.3789 24.2529 36.7683 23.4724 34.8839C22.6919 32.9996 22.4877 30.9261 22.8856 28.9256C23.2835 26.9252 24.2656 25.0877 25.7079 23.6455C27.1501 22.2032 28.9876 21.2211 30.988 20.8232C32.9885 20.4252 35.062 20.6295 36.9463 21.41C38.8307 22.1905 40.4413 23.5123 41.5744 25.2082C42.7076 26.9041 43.3124 28.8979 43.3124 30.9375C43.3124 33.6725 42.2259 36.2956 40.2919 38.2295C38.358 40.1635 35.735 41.25 32.9999 41.25C36.427 41.2491 39.7875 42.197 42.709 43.9887C45.6305 45.7804 47.9989 48.346 49.5518 51.4011C54.1207 47.2913 56.9973 41.6286 57.6218 35.515C58.2463 29.4014 56.5741 23.2741 52.9305 18.3253Z" fill="#E20024"/>
<path d="M33 41.25C38.6954 41.25 43.3125 36.6329 43.3125 30.9375C43.3125 25.2421 38.6954 20.625 33 20.625C27.3046 20.625 22.6875 25.2421 22.6875 30.9375C22.6875 36.6329 27.3046 41.25 33 41.25Z" stroke="black" stroke-miterlimit="10"/>
<path d="M16.4482 51.4011C18.0018 48.3466 20.3704 45.7815 23.2917 43.9899C26.213 42.1983 29.5731 41.25 33 41.25C36.4269 41.25 39.787 42.1983 42.7083 43.9899C45.6296 45.7815 47.9982 48.3465 49.5518 51.4011" stroke="black" stroke-linecap="round" stroke-linejoin="round"/>
<path d="M51.5625 18.5625C53.8407 18.5625 55.6875 16.7157 55.6875 14.4375C55.6875 12.1593 53.8407 10.3125 51.5625 10.3125C49.2843 10.3125 47.4375 12.1593 47.4375 14.4375C47.4375 16.7157 49.2843 18.5625 51.5625 18.5625Z" stroke="black" stroke-linecap="round" stroke-linejoin="round"/>
<path d="M51.5625 10.3125V7.21875" stroke="black" stroke-linecap="round" stroke-linejoin="round"/>
<path d="M47.9898 12.375L45.3105 10.8281" stroke="black" stroke-linecap="round" stroke-linejoin="round"/>
<path d="M47.9898 16.5L45.3105 18.0469" stroke="black" stroke-linecap="round" stroke-linejoin="round"/>
<path d="M51.5625 18.5625V21.6562" stroke="black" stroke-linecap="round" stroke-linejoin="round"/>
<path d="M55.1348 16.5L57.814 18.0469" stroke="black" stroke-linecap="round" stroke-linejoin="round"/>
<path d="M55.1348 12.375L57.814 10.8281" stroke="black" stroke-linecap="round" stroke-linejoin="round"/>
<path d="M57.5743 30.0352C57.6915 31.0191 57.7502 32.0091 57.75 33C57.75 37.8951 56.2984 42.6802 53.5789 46.7504C50.8593 50.8205 46.9939 53.9927 42.4714 55.866C37.949 57.7393 32.9726 58.2294 28.1715 57.2744C23.3705 56.3194 18.9605 53.9622 15.4991 50.5009C12.0378 47.0395 9.68056 42.6295 8.72558 37.8285C7.77059 33.0275 8.26072 28.0511 10.134 23.5286C12.0073 19.0061 15.1795 15.1407 19.2496 12.4211C23.3198 9.70156 28.1049 8.25 33 8.25C33.7744 8.25 34.54 8.28505 35.2967 8.35515" stroke="black" stroke-linecap="round" stroke-linejoin="round"/>
</svg>
